<?xml version="1.0" encoding="UTF-8"?><svg xmlns="http://www.w3.org/2000/svg" xmlns:xlink="http://www.w3.org/1999/xlink" height="49.2" preserveAspectRatio="xMidYMid meet" version="1.0" viewBox="-0.5 -0.4 268.1 49.2" width="268.1" zoomAndPan="magnify"><g id="change1_1"><path d="M266.84,31.46c-0.5,3.53-1.38,6.96-2.9,10.19c-0.72,1.53-1.61,2.92-2.94,4.04c-3.25,2.73-7.02,3.11-10.57,0.79 c-0.97-0.63-1.9-0.62-2.92-0.61c-14.58,0.14-29.15,0.39-43.73,0.41c-58.77,0.05-117.55,0.04-176.32,0.02c-2.98,0-5.97-0.2-8.95-0.27 c-0.44-0.01-0.94,0.05-1.32,0.26c-1.59,0.87-3.32,1.22-5.08,1.49c-2.37,0.36-4.4-0.28-6.2-1.87c-1.58-1.39-2.74-3-3.46-4.99 c-2.29-6.27-2.9-12.7-2.17-19.3C0.8,17.04,1.83,12.6,3.45,8.3c0.83-2.22,2-4.17,3.77-5.8c0.86-0.79,1.73-1.44,2.83-1.7 c3.82-0.89,7.42-0.75,10.48,2.44c76.66,0,153.18,0,229.82,0c0.41-0.47,0.77-1.01,1.25-1.42c1.8-1.58,3.84-2.23,6.21-1.52 c1.74,0.52,3.11,1.43,4.31,2.89c2.84,3.47,4.08,7.51,4.71,11.81C267.64,20.47,267.62,25.97,266.84,31.46z" fill="inherit"/></g><g id="change2_1"><path d="M261.34,6.78c-0.88-1.85-2.47-2.79-4.21-3.47c-1.72-0.67-3.58-0.01-4.63,1.6c-0.53,0.81-1.17,1.19-2.02,1.28 c-1.2,0.13-2.41,0.23-3.62,0.23c-34.39-0.04-68.77-0.11-103.16-0.16c-19.62-0.03-39.25,0-58.87-0.08 C63.98,6.11,43.14,6.23,22.3,5.59c-1.62-0.05-3.08-0.27-4.5-1.18c-2.73-1.74-5.63-1.68-8.68-0.39C8.61,5.24,8.19,6.28,7.74,7.3 c-3.61,8.23-4.9,16.81-3.83,25.73C4.27,36.09,5,39.09,6.04,42c0.82,2.3,2.94,3.52,5.31,3.05c0.04-0.01,0.08-0.02,0.12-0.03 c8.11-9.7,6.78-23.43,5.13-35.61c-0.27-0.81,1.75-0.37,3,0.52c-0.11-0.42-0.23-0.84-0.36-1.26C19.19,8.49,19.39,8.1,19.57,8 c0.17-0.09,0.55,0.04,0.71,0.2c0.25,0.26,0.47,0.6,0.56,0.94c0.14,0.5,0.28,1,0.43,1.51h232.88c-0.18-0.52-0.36-1.04-0.52-1.56 c-0.15-0.5-0.14-1.05-0.21-1.58c0.17-0.06,0.34-0.11,0.52-0.17c0.22,0.27,0.49,0.52,0.65,0.82c0.3,0.61,0.59,1.22,0.86,1.84 c1.58-2.28,3.92-2.87,6.26-2.41C261.58,7.32,261.46,7.05,261.34,6.78z M15.03,33.34c-0.35,1.62-1.01,3.2-1.7,4.72 c-0.37,0.82-1.01,1.59-1.7,2.17c-1.58,1.31-3.61,0.77-4.26-1.17c-0.5-1.49-0.88-3.06-1.04-4.62c-0.35-3.43-0.52-6.88-0.65-8.84 C5.72,19.8,6.06,15.54,7.3,11.39c0.43-1.44,1-2.81,2.24-3.78c1.09-0.86,2.08-0.76,2.85,0.4c1.14,1.73,1.82,3.67,2.32,5.67 C16.34,20.2,16.46,26.77,15.03,33.34z" fill="#A5A7AA"/></g><g id="change3_1"><path d="M261,39.15c-0.56,1.25-1.23,2.45-1.98,3.61c-1.67,2.58-5.02,3.27-7.57,1.54c-0.23-0.16-0.44-0.34-0.65-0.53 c-0.95-0.88-2.1-1.17-3.35-1.18c-1.03-0.01-2.06-0.02-3.08-0.02c-61.95-0.1-123.91-0.21-185.86-0.28 c-12.43-0.01-24.86,0.12-37.28,0.15c-1.04,0-2.04,0.1-3.01,0.3c0.74-1.3,1.43-2.58,1.76-3.97c0.22-0.05,0.46-0.17,0.6-0.3 c0.66-0.61,0.98-1.41,1.18-2.27h230.83c-0.17,0.36-0.34,0.72-0.52,1.09c-0.33,0.66-0.58,1.37-0.77,2.08 c-0.17,0.65,0.6,1.23,1.26,1.05c1.08-0.3,1.79-1.07,2.22-2c0.13-0.28,0.26-0.57,0.39-0.86C256.98,38.72,258.99,39.32,261,39.15z" fill="#86888A"/></g><g id="change4_1"><path d="M255.69,16.61c0.45,6.78-0.26,13.37-3.11,19.58H21.75c0.04-0.15,0.07-0.31,0.1-0.47 c0.71-3.77,1.18-7.56,1.2-11.42c-0.25-3.16-0.39-6.34-0.8-9.48c-0.18-1.41-0.59-2.8-0.99-4.18h232.88c0.28,0.8,0.57,1.6,0.8,2.41 C255.27,14.22,255.61,15.41,255.69,16.61z M16.6,9.42c1.65,12.18,2.97,25.91-5.13,35.61c1.14-0.23,2.3-0.54,3.32-1.07 c1.12-0.58,2.25-0.98,3.43-1.22c0.74-1.3,1.43-2.58,1.76-3.97c-0.15,0.03-0.29,0.04-0.37-0.01c-0.36-0.19-0.77-0.62-0.81-0.99 c-0.07-0.63,0.06-1.3,0.22-1.92c1.44-5.37,1.78-10.85,1.66-16.38c-0.07-3.21-0.27-6.41-1.07-9.52C18.35,9.06,16.33,8.61,16.6,9.42z M255.44,10c1.8,4.1,2.82,8.37,2.61,12.96c-0.16,3.55-0.44,7.08-1.36,10.51c-0.38,1.39-0.93,2.75-1.53,4.07 c1.82,1.17,3.83,1.77,5.84,1.6c0.55-1.21,1-2.47,1.34-3.76c1.91-7.23,2.27-14.56,1.06-21.94c-0.33-2.01-0.89-3.97-1.7-5.86 C259.36,7.13,257.02,7.73,255.44,10z" fill="#939598"/></g><g id="change5_1"><path d="M9.58,37.31c-0.23-0.52-0.48-0.83-0.5-1.14c-0.34-6.32-0.72-12.64,0.28-18.93c0.33-2.1,0.9-4.16,1.44-6.56 c0.44,0.47,0.78,0.67,0.84,0.94c0.4,1.62,0.9,3.24,1.07,4.9c0.52,5.31,0.37,10.59-0.95,15.79C11.33,33.98,10.79,35.65,9.58,37.31z" fill="#434345"/></g></svg>